<?xml version="1.0" encoding="UTF-8"?>
<svg version="1.1" xmlns="http://www.w3.org/2000/svg" width="512" height="512">
<path d="M0 0 C168.96 0 337.92 0 512 0 C512 168.96 512 337.92 512 512 C343.04 512 174.08 512 0 512 C0 343.04 0 174.08 0 0 Z " fill="#0F172A" transform="translate(0,0)"/>
<path d="M0 0 C44.88 0 89.76 0 136 0 C136 45.21 136 90.42 136 137 C97.06 137 58.12 137 18 137 C18 142.28 18 147.56 18 153 C81.36 153 144.72 153 210 153 C210 165.21 210 177.42 210 190 C211.65 190 213.3 190 215 190 C215 234.88 215 279.76 215 326 C170.12 326 125.24 326 79 326 C79 298.28 79 270.56 79 242 C58.87 242 38.74 242 18 242 C18 252.89 18 263.78 18 275 C9.09 275 0.18 275 -9 275 C-9 317.9 -9 360.8 -9 405 C-53.88 405 -98.76 405 -145 405 C-145 362.1 -145 319.2 -145 275 C-174.7 275 -204.4 275 -235 275 C-235 219.89 -235 164.78 -235 108 C-231.37 108 -227.74 108 -224 108 C-224 81.93 -224 55.86 -224 29 C-179.12 29 -134.24 29 -88 29 C-88 55.07 -88 81.14 -88 108 C-58.96 108 -29.92 108 0 108 C0 72.36 0 36.72 0 0 Z " fill="#DD972A" transform="translate(261,31)"/>
<path d="M0 0 C84.15 0 168.3 0 255 0 C255 12.21 255 24.42 255 37 C256.65 37 258.3 37 260 37 C260 81.88 260 126.76 260 173 C215.12 173 170.24 173 124 173 C124 145.28 124 117.56 124 89 C83.08 89 42.16 89 0 89 C0 59.63 0 30.26 0 0 Z " fill="#4BB4EE" transform="translate(216,184)"/>
<path d="M0 0 C44.88 0 89.76 0 136 0 C136 45.21 136 90.42 136 137 C97.06 137 58.12 137 18 137 C18 127.43 18 117.86 18 108 C12.06 108 6.12 108 0 108 C0 72.36 0 36.72 0 0 Z " fill="#A9A271" transform="translate(261,31)"/>
<path d="M0 0 C44.88 0 89.76 0 136 0 C136 42.9 136 85.8 136 130 C91.12 130 46.24 130 0 130 C0 87.1 0 44.2 0 0 Z " fill="#8BA89A" transform="translate(116,306)"/>
<path d="M0 0 C1.65 0 3.3 0 5 0 C5 44.88 5 89.76 5 136 C-39.88 136 -84.76 136 -131 136 C-131 108.28 -131 80.56 -131 52 C-87.77 52 -44.54 52 0 52 C0 34.84 0 17.68 0 0 Z " fill="#68AFC9" transform="translate(471,221)"/>
<path d="M0 0 C2.58191853 1.47052879 4.68008522 3.11506924 7 5 C7 3.35 7 1.7 7 0 C10.3 0 13.6 0 17 0 C16.835 1.299375 16.67 2.59875 16.5 3.9375 C15.64161956 11.77328714 16.00853915 19.1922458 17 27 C13.7 27 10.4 27 7 27 C7 25.35 7 23.7 7 22 C6.01 22.804375 5.02 23.60875 4 24.4375 C-0.10807155 27.35049619 -2.95742074 28 -8 28 C-12.68158351 26.37945186 -15.56456731 24.32965812 -18 20 C-19.26496055 14.65452154 -19.73043509 10.51497648 -17.3125 5.5 C-12.11682632 -0.11694452 -7.64040118 -2.10529303 0 0 Z " fill="#F1F5F9" transform="translate(94,205)"/>
<path d="M0 0 C3.21457381 2.37083534 4.2880882 4.60942125 5.80078125 8.328125 C5.80078125 10.638125 5.80078125 12.948125 5.80078125 15.328125 C-4.09921875 15.823125 -4.09921875 15.823125 -14.19921875 16.328125 C-10.85156294 18.55989554 -9.7286059 18.57445823 -5.82421875 18.515625 C-4.88835938 18.50917969 -3.9525 18.50273437 -2.98828125 18.49609375 C-0.30353192 18.33440717 2.18134728 17.9234509 4.80078125 17.328125 C4.80078125 18.978125 4.80078125 20.628125 4.80078125 22.328125 C-1.28557577 25.58361829 -7.21916158 27.48291387 -14.19921875 26.328125 C-18.55057625 24.38555469 -23.07015451 21.71149255 -25.19921875 17.328125 C-26.22992778 12.76355643 -26.61763752 10.47327112 -25.01171875 6.078125 C-19.00092487 -3.0417002 -9.67735024 -5.33663586 0 0 Z " fill="#F1F5F9" transform="translate(65.19921875,206.671875)"/>
<path d="M0 0 C3.3 0 6.6 0 10 0 C13.05154848 5.88512921 15.59687306 11.82053073 18 18 C20.64 12.06 23.28 6.12 26 0 C29.3 0 32.6 0 36 0 C33.04923305 7.4288153 29.83502397 14.73676597 26.5 22 C26.13269775 22.8247583 25.76539551 23.6495166 25.38696289 24.49926758 C23.261761 29.06547194 21.49514401 32.37554854 17 35 C12.15889915 36.27287565 7.57232642 36.52410881 2.8125 34.9375 C1 33 1 33 0.6875 29.8125 C0.790625 28.884375 0.89375 27.95625 1 27 C1.495 27.165 1.99 27.33 2.5 27.5 C6.13360923 28.22672185 9.28605766 28.23960918 13 28 C13.66 27.01 14.32 26.02 15 25 C13.68 25 12.36 25 11 25 C9.1636275 21.0222289 7.33141138 17.0425574 5.5 13.0625 C4.71302734 11.35803711 4.71302734 11.35803711 3.91015625 9.61914062 C3.41386719 8.53955078 2.91757813 7.45996094 2.40625 6.34765625 C1.94541016 5.34742432 1.48457031 4.34719238 1.00976562 3.31665039 C0 1 0 1 0 0 Z " fill="#F1F5F9" transform="translate(148,205)"/>
<path d="M0 0 C1.73046875 1.51171875 1.73046875 1.51171875 3 3 C3 3.66 3 4.32 3 5 C1.39620659 5.05416188 -0.20811406 5.09286638 -1.8125 5.125 C-2.70582031 5.14820313 -3.59914062 5.17140625 -4.51953125 5.1953125 C-7 5 -7 5 -10 3 C-12.05709596 2.75944532 -12.05709596 2.75944532 -14.1875 2.875 C-15.445625 2.91625 -16.70375 2.9575 -18 3 C-18 3.99 -18 4.98 -18 6 C-16.24623047 6.14695313 -16.24623047 6.14695313 -14.45703125 6.296875 C-12.90876596 6.44700982 -11.3605933 6.59810205 -9.8125 6.75 C-8.65911133 6.8428125 -8.65911133 6.8428125 -7.48242188 6.9375 C-2.58954998 7.4414868 0.53642199 8.2039185 4 12 C4.06894453 15.86089364 3.60363396 18.10662174 1.4375 21.3125 C-5.57576306 26.16783596 -13.93288074 25.45627218 -22 24 C-24.71890686 22.94928691 -25.8615077 22.07908973 -28 20 C-28.640625 17.86328125 -28.640625 17.86328125 -29 16 C-27.37536158 15.94604522 -25.75021459 15.90722805 -24.125 15.875 C-23.22007813 15.85179687 -22.31515625 15.82859375 -21.3828125 15.8046875 C-19 16 -19 16 -17 18 C-14.55987051 18.24287489 -14.55987051 18.24287489 -11.875 18.125 C-10.96492188 18.10695312 -10.05484375 18.08890625 -9.1171875 18.0703125 C-8.06917969 18.03550781 -8.06917969 18.03550781 -7 18 C-6.67 17.01 -6.34 16.02 -6 15 C-7.25296875 14.89042969 -8.5059375 14.78085938 -9.796875 14.66796875 C-11.44798194 14.50848683 -13.09902025 14.34829327 -14.75 14.1875 C-15.575 14.11724609 -16.4 14.04699219 -17.25 13.97460938 C-25.10596649 13.18267727 -25.10596649 13.18267727 -28 10 C-29.0625 6.625 -29.0625 6.625 -29 3 C-26.07793002 -1.24171449 -22.99565512 -2.76983588 -18.10546875 -3.71484375 C-11.0191981 -4.67457985 -6.08705069 -4.03553915 0 0 Z " fill="#F1F5F9" transform="translate(144,208)"/>
<path d="M0 0 C1.5801637 3.37101589 1.0531402 6.57685554 -0.0625 10 C-3.51954309 13.87607862 -8.15497113 15.56999159 -13.0625 17 C-13.7225 17 -14.3825 17 -15.0625 17 C-14.7325 18.32 -14.4025 19.64 -14.0625 21 C-9.33431994 21.32987303 -6.97956695 20.61137796 -3.0625 18 C-2.4025 18 -1.7425 18 -1.0625 18 C-0.7325 19.32 -0.4025 20.64 -0.0625 22 C-5.07091569 24.91398731 -9.11098674 27.01063433 -15.0625 26 C-17.8125 23.6875 -17.8125 23.6875 -20.0625 21 C-20.660625 20.401875 -21.25875 19.80375 -21.875 19.1875 C-22.266875 18.795625 -22.65875 18.40375 -23.0625 18 C-22.4025 16.68 -21.7425 15.36 -21.0625 14 C-20.4025 14 -19.7425 14 -19.0625 14 C-18.98 12.96875 -18.8975 11.9375 -18.8125 10.875 C-17.88103953 6.06245421 -16.21722713 2.69299988 -12.3125 -0.375 C-8.21302459 -1.51374317 -3.9253525 -1.90320121 0 0 Z " fill="#F1F5F9" transform="translate(312.0625,222)"/>
<path d="M0 0 C1.65 0 3.3 0 5 0 C4.566875 1.86591797 4.566875 1.86591797 4.125 3.76953125 C2.14177743 12.56765099 0.26514126 20.91632944 1 30 C2.65 30 4.3 30 6 30 C8.31663844 26.06171464 10.43358249 22.30764815 12 18 C10.68 17.34 9.36 16.68 8 16 C8.75 11.25 8.75 11.25 11 9 C13.625 9.375 13.625 9.375 16 10 C16.33 11.65 16.66 13.3 17 15 C17.99 15 18.98 15 20 15 C19.67 16.32 19.34 17.64 19 19 C18.01 19 17.02 19 16 19 C15.95875 19.825 15.9175 20.65 15.875 21.5 C14.42764148 27.28943408 10.94095096 31.70603269 6 35 C-0.32258065 35.4516129 -0.32258065 35.4516129 -4 33 C-5.84220641 25.73399519 -4.14187137 19.19995409 -2.5625 12 C-2.31951172 10.84371094 -2.07652344 9.68742188 -1.82617188 8.49609375 C-1.22878653 5.6614417 -0.61981891 2.82981588 0 0 Z " fill="#F1F5F9" transform="translate(348,213)"/>
<path d="M0 0 C2.5625 0.1875 2.5625 0.1875 4.5625 2.1875 C4.60416002 4.5204614 4.60416002 6.8545386 4.5625 9.1875 C4.8925 9.8475 5.2225 10.5075 5.5625 11.1875 C5.63200541 12.72773996 5.64702357 14.27084988 5.625 15.8125 C5.61597656 16.62976563 5.60695313 17.44703125 5.59765625 18.2890625 C5.58605469 18.91554687 5.57445312 19.54203125 5.5625 20.1875 C6.8825 20.1875 8.2025 20.1875 9.5625 20.1875 C8.5592047 23.42034041 7.53648572 24.202675 4.5625 25.9375 C-0.01239901 27.66983624 -4.6186166 27.93638053 -9.4375 27.1875 C-12.5625 25.375 -12.5625 25.375 -14.4375 23.1875 C-14.4375 22.1975 -14.4375 21.2075 -14.4375 20.1875 C-12.625 19.5 -12.625 19.5 -10.4375 19.1875 C-10.004375 19.661875 -9.57125 20.13625 -9.125 20.625 C-7.36876515 22.58612764 -7.36876515 22.58612764 -3.75 22.375 C-2.656875 22.313125 -1.56375 22.25125 -0.4375 22.1875 C0.2225 18.8875 0.8825 15.5875 1.5625 12.1875 C0.87542969 12.5484375 0.18835938 12.909375 -0.51953125 13.28125 C-1.42058594 13.7453125 -2.32164062 14.209375 -3.25 14.6875 C-4.14332031 15.1515625 -5.03664063 15.615625 -5.95703125 16.09375 C-8.4375 17.1875 -8.4375 17.1875 -11.4375 17.1875 C-11.4375 15.5375 -11.4375 13.8875 -11.4375 12.1875 C-9.1275 11.5275 -6.8175 10.8675 -4.4375 10.1875 C-4.4375 8.8675 -4.4375 7.5475 -4.4375 6.1875 C-3.47373188 0.26721014 -3.47373188 0.26721014 0 0 Z " fill="#F1F5F9" transform="translate(381.4375,220.8125)"/>
<path d="M0 0 C1.4540625 0.0309375 1.4540625 0.0309375 2.9375 0.0625 C3.2675 1.7125 3.5975 3.3625 3.9375 5.0625 C5.09378906 4.61197266 5.09378906 4.61197266 6.2734375 4.15234375 C7.27632813 3.77207031 8.27921875 3.39179688 9.3125 3 C10.31023437 2.61714844 11.30796875 2.23429688 12.3359375 1.83984375 C14.9375 1.0625 14.9375 1.0625 16.9375 2.0625 C15.2687285 6.4293787 13.18129602 10.45547846 10.9609375 14.5625 C9.85560379 17.26255182 9.74154021 19.17467159 9.9375 22.0625 C10.5975 22.0625 11.2575 22.0625 11.9375 22.0625 C12.2675 21.4025 12.5975 20.7425 12.9375 20.0625 C14.2575 20.3925 15.5775 20.7225 16.9375 21.0625 C15.1875 25.9375 15.1875 25.9375 12.9375 27.0625 C9.9375 27.3125 9.9375 27.3125 6.9375 27.0625 C4.02718411 22.69702616 5.0671056 19.07724939 5.9375 14.0625 C7 10.9375 7 10.9375 7.9375 9.0625 C5.56516389 9.10030298 5.56516389 9.10030298 2.9375 10.0625 C1.5671945 12.03735205 0.23077628 14.03636717 -1.0625 16.0625 C-2.0525 16.0625 -3.0425 16.0625 -4.0625 16.0625 C-4.0625 12.0625 -4.0625 12.0625 -2.0625 9.0625 C-2.578125 8.670625 -3.09375 8.27875 -3.625 7.875 C-5.0625 6.0625 -5.0625 6.0625 -4.8125 3.4375 C-3.75114865 0.07655405 -3.75114865 0.07655405 0 0 Z " fill="#F1F5F9" transform="translate(322.0625,220.9375)"/>
<path d="M0 0 C1.65 0 3.3 0 5 0 C5.33910994 2.04071515 5.67102704 4.08262621 6 6.125 C6.185625 7.26195312 6.37125 8.39890625 6.5625 9.5703125 C6.96956049 12.76137602 7.07809902 15.78817791 7 19 C7.66 19 8.32 19 9 19 C9.26683594 18.27941406 9.53367187 17.55882812 9.80859375 16.81640625 C11.3856095 13.08844443 13.50652608 9.81971778 15.66015625 6.40234375 C16.88028746 4.21464494 17.54264626 2.44486627 18 0 C19.65 0 21.3 0 23 0 C21.1124024 6.6746398 18.40793615 12.20290596 14.625 18 C13.92117188 19.14275391 13.92117188 19.14275391 13.203125 20.30859375 C12.73648437 21.03175781 12.26984375 21.75492188 11.7890625 22.5 C11.37350098 23.1496875 10.95793945 23.799375 10.52978516 24.46875 C9 26 9 26 4 27 C2.68 18.09 1.36 9.18 0 0 Z " fill="#F1F5F9" transform="translate(267,221)"/>
<path d="M0 0 C3.0099077 2.29014716 4.69783903 3.79135614 5.625 7.5 C4.69783903 11.20864386 3.0099077 12.70985284 0 15 C-3.68455227 15.6767545 -5.24316508 15.49791771 -8.375 13.4375 C-10.62340519 10.06489221 -10.56783945 7.97487617 -10 4 C-7.27238925 -0.09141613 -4.79563536 -0.88083098 0 0 Z " fill="#D79126" transform="translate(95,211)"/>
<path d="M0 0 C0.47945205 6.23287671 0.47945205 6.23287671 -1.5625 9.5 C-4 11 -4 11 -7.625 11 C-11 10 -11 10 -12.2109375 7.9375 C-12.47132813 7.298125 -12.73171875 6.65875 -13 6 C-11.21118264 4.99491199 -9.41885304 3.99607264 -7.625 3 C-6.62726563 2.443125 -5.62953125 1.88625 -4.6015625 1.3125 C-2 0 -2 0 0 0 Z " fill="#46A8DF" transform="translate(383,233)"/>
<path d="M0 0 C0.721875 0.103125 1.44375 0.20625 2.1875 0.3125 C2.5175 1.9625 2.8475 3.6125 3.1875 5.3125 C-0.69559282 8.96025386 -3.52451818 9.89775633 -8.8125 10.3125 C-8.5109013 6.79384855 -7.80644038 5.30492548 -5.5625 2.5 C-2.8125 0.3125 -2.8125 0.3125 0 0 Z " fill="#45A6DC" transform="translate(305.8125,224.6875)"/>
<path d="M0 0 C2.29199177 0.14063135 4.58359186 0.28765943 6.875 0.4375 C8.15117187 0.51871094 9.42734375 0.59992188 10.7421875 0.68359375 C14 1 14 1 16 2 C15.67 3.32 15.34 4.64 15 6 C13.37536158 6.05395478 11.75021459 6.09277195 10.125 6.125 C8.76761719 6.15980469 8.76761719 6.15980469 7.3828125 6.1953125 C5 6 5 6 3 4 C0.56747339 3.53837573 0.56747339 3.53837573 -2.125 3.375 C-3.03507812 3.30023438 -3.94515625 3.22546875 -4.8828125 3.1484375 C-5.58148438 3.09945312 -6.28015625 3.05046875 -7 3 C-7 2.67 -7 2.34 -7 2 C-3.535 1.505 -3.535 1.505 0 1 C0 0.67 0 0.34 0 0 Z " fill="#C78522" transform="translate(122,221)"/>
<path d="M0 0 C3.12498063 -0.02895976 6.2499269 -0.04678483 9.375 -0.0625 C10.70917969 -0.07506836 10.70917969 -0.07506836 12.0703125 -0.08789062 C13.34648438 -0.09272461 13.34648438 -0.09272461 14.6484375 -0.09765625 C15.43395996 -0.10289307 16.21948242 -0.10812988 17.02880859 -0.11352539 C19 0 19 0 21 1 C21 3.31 21 5.62 21 8 C20.34 7.67 19.68 7.34 19 7 C19.33 5.35 19.66 3.7 20 2 C19.28972656 2.32226562 18.57945313 2.64453125 17.84765625 2.9765625 C14.87269963 4.0457513 12.58694748 4.33119684 9.4375 4.375 C8.04337891 4.41753906 8.04337891 4.41753906 6.62109375 4.4609375 C3.2973009 3.87642549 2.13229806 2.53868899 0 0 Z " fill="#CE8A23" transform="translate(50,222)"/>
<path d="M0 0 C2.0078125 0.23046875 2.0078125 0.23046875 5.0078125 2.23046875 C7.51677936 2.68648136 7.51677936 2.68648136 10.1953125 2.85546875 C11.09636719 2.93023437 11.99742187 3.005 12.92578125 3.08203125 C13.61285156 3.13101563 14.29992187 3.18 15.0078125 3.23046875 C15.0078125 3.56046875 15.0078125 3.89046875 15.0078125 4.23046875 C14.1003125 4.37484375 13.1928125 4.51921875 12.2578125 4.66796875 C9.21703913 5.12484746 9.21703913 5.12484746 7.1640625 5.79296875 C4.41110544 6.35153975 2.04583086 6.091685 -0.7421875 5.79296875 C-1.72703125 5.69113281 -2.711875 5.58929688 -3.7265625 5.484375 C-4.47421875 5.40058594 -5.221875 5.31679687 -5.9921875 5.23046875 C-6.5546875 3.29296875 -6.5546875 3.29296875 -6.9921875 1.23046875 C-5.11574989 -0.64596886 -2.49413049 0.05061888 0 0 Z " fill="#C58421" transform="translate(131.9921875,209.76953125)"/>
<path d="M0 0 C3.625 0.25 3.625 0.25 5.5625 1.625 C6.625 3.25 6.625 3.25 6.625 5.25 C2.335 5.25 -1.955 5.25 -6.375 5.25 C-3.89423077 0.28846154 -3.89423077 0.28846154 0 0 Z " fill="#D28D24" transform="translate(55.375,210.75)"/>
</svg>
